<mxfile host="app.diagrams.net" modified="2023-08-01T21:32:09.235Z" agent="Mozilla/5.0 (Windows NT 10.0; Win64; x64) AppleWebKit/537.36 (KHTML, like Gecko) Chrome/115.0.0.0 Safari/537.36" etag="zo8Z0HRZUCWIUMCZCwM1" version="21.6.5" type="device">
  <diagram name="Page-1" id="oXHPxvQ1bsRdNq7H_q3D">
    <mxGraphModel dx="880" dy="446" grid="1" gridSize="10" guides="1" tooltips="1" connect="1" arrows="1" fold="1" page="1" pageScale="1" pageWidth="850" pageHeight="1100" math="0" shadow="0">
      <root>
        <mxCell id="0" />
        <mxCell id="1" parent="0" />
        <mxCell id="In6M2ZouKBIGN-HPX_RF-3" value="" style="edgeStyle=orthogonalEdgeStyle;rounded=0;orthogonalLoop=1;jettySize=auto;html=1;" edge="1" parent="1" source="In6M2ZouKBIGN-HPX_RF-1" target="In6M2ZouKBIGN-HPX_RF-2">
          <mxGeometry relative="1" as="geometry" />
        </mxCell>
        <mxCell id="In6M2ZouKBIGN-HPX_RF-1" value="Start" style="ellipse;whiteSpace=wrap;html=1;" vertex="1" parent="1">
          <mxGeometry x="100" y="40" width="120" height="80" as="geometry" />
        </mxCell>
        <mxCell id="In6M2ZouKBIGN-HPX_RF-5" value="" style="edgeStyle=orthogonalEdgeStyle;rounded=0;orthogonalLoop=1;jettySize=auto;html=1;" edge="1" parent="1" source="In6M2ZouKBIGN-HPX_RF-2" target="In6M2ZouKBIGN-HPX_RF-4">
          <mxGeometry relative="1" as="geometry" />
        </mxCell>
        <mxCell id="In6M2ZouKBIGN-HPX_RF-2" value="Open LinkedIn" style="rounded=1;whiteSpace=wrap;html=1;" vertex="1" parent="1">
          <mxGeometry x="100" y="160" width="120" height="60" as="geometry" />
        </mxCell>
        <mxCell id="In6M2ZouKBIGN-HPX_RF-8" value="" style="edgeStyle=orthogonalEdgeStyle;rounded=0;orthogonalLoop=1;jettySize=auto;html=1;" edge="1" parent="1" source="In6M2ZouKBIGN-HPX_RF-4" target="In6M2ZouKBIGN-HPX_RF-6">
          <mxGeometry relative="1" as="geometry" />
        </mxCell>
        <mxCell id="In6M2ZouKBIGN-HPX_RF-13" value="" style="edgeStyle=orthogonalEdgeStyle;rounded=0;orthogonalLoop=1;jettySize=auto;html=1;" edge="1" parent="1" source="In6M2ZouKBIGN-HPX_RF-4" target="In6M2ZouKBIGN-HPX_RF-12">
          <mxGeometry relative="1" as="geometry" />
        </mxCell>
        <mxCell id="In6M2ZouKBIGN-HPX_RF-4" value="Send connection&amp;nbsp;&lt;br&gt;request" style="rhombus;whiteSpace=wrap;html=1;" vertex="1" parent="1">
          <mxGeometry x="95" y="260" width="130" height="90" as="geometry" />
        </mxCell>
        <mxCell id="In6M2ZouKBIGN-HPX_RF-9" value="" style="edgeStyle=orthogonalEdgeStyle;rounded=0;orthogonalLoop=1;jettySize=auto;html=1;" edge="1" parent="1" source="In6M2ZouKBIGN-HPX_RF-6" target="In6M2ZouKBIGN-HPX_RF-7">
          <mxGeometry relative="1" as="geometry" />
        </mxCell>
        <mxCell id="In6M2ZouKBIGN-HPX_RF-6" value="Search for a person" style="rounded=1;whiteSpace=wrap;html=1;" vertex="1" parent="1">
          <mxGeometry x="280" y="275" width="120" height="60" as="geometry" />
        </mxCell>
        <mxCell id="In6M2ZouKBIGN-HPX_RF-11" value="" style="edgeStyle=orthogonalEdgeStyle;rounded=0;orthogonalLoop=1;jettySize=auto;html=1;" edge="1" parent="1" source="In6M2ZouKBIGN-HPX_RF-7" target="In6M2ZouKBIGN-HPX_RF-10">
          <mxGeometry relative="1" as="geometry" />
        </mxCell>
        <mxCell id="In6M2ZouKBIGN-HPX_RF-7" value="View profile" style="rounded=1;whiteSpace=wrap;html=1;" vertex="1" parent="1">
          <mxGeometry x="460" y="275" width="120" height="60" as="geometry" />
        </mxCell>
        <mxCell id="In6M2ZouKBIGN-HPX_RF-19" value="" style="edgeStyle=orthogonalEdgeStyle;rounded=0;orthogonalLoop=1;jettySize=auto;html=1;" edge="1" parent="1" source="In6M2ZouKBIGN-HPX_RF-10" target="In6M2ZouKBIGN-HPX_RF-18">
          <mxGeometry relative="1" as="geometry" />
        </mxCell>
        <mxCell id="In6M2ZouKBIGN-HPX_RF-10" value="Send connection request" style="rounded=1;whiteSpace=wrap;html=1;" vertex="1" parent="1">
          <mxGeometry x="640" y="275" width="120" height="60" as="geometry" />
        </mxCell>
        <mxCell id="In6M2ZouKBIGN-HPX_RF-16" value="" style="edgeStyle=orthogonalEdgeStyle;rounded=0;orthogonalLoop=1;jettySize=auto;html=1;" edge="1" parent="1" source="In6M2ZouKBIGN-HPX_RF-12" target="In6M2ZouKBIGN-HPX_RF-14">
          <mxGeometry relative="1" as="geometry" />
        </mxCell>
        <mxCell id="In6M2ZouKBIGN-HPX_RF-12" value="Accept network request" style="rounded=1;whiteSpace=wrap;html=1;" vertex="1" parent="1">
          <mxGeometry x="100" y="400" width="120" height="60" as="geometry" />
        </mxCell>
        <mxCell id="In6M2ZouKBIGN-HPX_RF-17" value="" style="edgeStyle=orthogonalEdgeStyle;rounded=0;orthogonalLoop=1;jettySize=auto;html=1;" edge="1" parent="1" source="In6M2ZouKBIGN-HPX_RF-14" target="In6M2ZouKBIGN-HPX_RF-15">
          <mxGeometry relative="1" as="geometry" />
        </mxCell>
        <mxCell id="In6M2ZouKBIGN-HPX_RF-14" value="Go to network" style="rounded=1;whiteSpace=wrap;html=1;" vertex="1" parent="1">
          <mxGeometry x="100" y="510" width="120" height="60" as="geometry" />
        </mxCell>
        <mxCell id="In6M2ZouKBIGN-HPX_RF-23" value="" style="edgeStyle=orthogonalEdgeStyle;rounded=0;orthogonalLoop=1;jettySize=auto;html=1;" edge="1" parent="1" source="In6M2ZouKBIGN-HPX_RF-15" target="In6M2ZouKBIGN-HPX_RF-22">
          <mxGeometry relative="1" as="geometry" />
        </mxCell>
        <mxCell id="In6M2ZouKBIGN-HPX_RF-15" value="Accept connection request" style="rounded=1;whiteSpace=wrap;html=1;" vertex="1" parent="1">
          <mxGeometry x="100" y="620" width="120" height="60" as="geometry" />
        </mxCell>
        <mxCell id="In6M2ZouKBIGN-HPX_RF-21" value="" style="edgeStyle=orthogonalEdgeStyle;rounded=0;orthogonalLoop=1;jettySize=auto;html=1;" edge="1" parent="1" source="In6M2ZouKBIGN-HPX_RF-18" target="In6M2ZouKBIGN-HPX_RF-20">
          <mxGeometry relative="1" as="geometry" />
        </mxCell>
        <mxCell id="In6M2ZouKBIGN-HPX_RF-26" style="edgeStyle=orthogonalEdgeStyle;rounded=0;orthogonalLoop=1;jettySize=auto;html=1;exitX=1;exitY=0.5;exitDx=0;exitDy=0;" edge="1" parent="1" source="In6M2ZouKBIGN-HPX_RF-18">
          <mxGeometry relative="1" as="geometry">
            <mxPoint x="520" y="770" as="targetPoint" />
            <Array as="points">
              <mxPoint x="960" y="305" />
              <mxPoint x="960" y="770" />
            </Array>
          </mxGeometry>
        </mxCell>
        <mxCell id="In6M2ZouKBIGN-HPX_RF-18" value="Accepted?" style="rhombus;whiteSpace=wrap;html=1;" vertex="1" parent="1">
          <mxGeometry x="810" y="260" width="130" height="90" as="geometry" />
        </mxCell>
        <mxCell id="In6M2ZouKBIGN-HPX_RF-24" style="edgeStyle=orthogonalEdgeStyle;rounded=0;orthogonalLoop=1;jettySize=auto;html=1;entryX=1;entryY=0.5;entryDx=0;entryDy=0;" edge="1" parent="1" source="In6M2ZouKBIGN-HPX_RF-20" target="In6M2ZouKBIGN-HPX_RF-22">
          <mxGeometry relative="1" as="geometry" />
        </mxCell>
        <mxCell id="In6M2ZouKBIGN-HPX_RF-20" value="Send a messaage" style="rounded=1;whiteSpace=wrap;html=1;" vertex="1" parent="1">
          <mxGeometry x="815" y="390" width="120" height="60" as="geometry" />
        </mxCell>
        <mxCell id="In6M2ZouKBIGN-HPX_RF-22" value="End" style="ellipse;whiteSpace=wrap;html=1;" vertex="1" parent="1">
          <mxGeometry x="100" y="730" width="120" height="80" as="geometry" />
        </mxCell>
      </root>
    </mxGraphModel>
  </diagram>
</mxfile>
